<?xml version="1.0" encoding="UTF-8" standalone="no"?>
<!-- Created with Inkscape (http://www.inkscape.org/) -->

<svg
   xmlns:dc="http://purl.org/dc/elements/1.1/"
   xmlns:cc="http://creativecommons.org/ns#"
   xmlns:rdf="http://www.w3.org/1999/02/22-rdf-syntax-ns#"
   xmlns:svg="http://www.w3.org/2000/svg"
   xmlns="http://www.w3.org/2000/svg"
   xmlns:sodipodi="http://sodipodi.sourceforge.net/DTD/sodipodi-0.dtd"
   xmlns:inkscape="http://www.inkscape.org/namespaces/inkscape"
   width="52.916668mm"
   height="16.408176mm"
   viewBox="0 0 52.916668 16.408176"
   version="1.1"
   id="svg48823"
   inkscape:version="0.92.4 5da689c313, 2019-01-14"
   sodipodi:docname="logo.svg">
  <defs
     id="defs48817" />
  <sodipodi:namedview
     id="base"
     pagecolor="#ffffff"
     bordercolor="#666666"
     borderopacity="1.0"
     inkscape:pageopacity="0.0"
     inkscape:pageshadow="2"
     inkscape:zoom="3.959798"
     inkscape:cx="125.63544"
     inkscape:cy="112.7814"
     inkscape:document-units="px"
     inkscape:current-layer="layer1"
     showgrid="false"
     scale-x="1e-05"
     fit-margin-top="0"
     fit-margin-left="0"
     fit-margin-right="0"
     fit-margin-bottom="0"
     inkscape:window-width="2560"
     inkscape:window-height="1387"
     inkscape:window-x="0"
     inkscape:window-y="0"
     inkscape:window-maximized="1" />
  <metadata
     id="metadata48820">
    <rdf:RDF>
      <cc:Work
         rdf:about="">
        <dc:format>image/svg+xml</dc:format>
        <dc:type
           rdf:resource="http://purl.org/dc/dcmitype/StillImage" />
        <dc:title></dc:title>
      </cc:Work>
    </rdf:RDF>
  </metadata>
  <g
     inkscape:label="Layer 1"
     inkscape:groupmode="layer"
     id="layer1"
     transform="translate(3.67e-6,-280.59182)">
    <g
       transform="matrix(0.47986095,0,0,0.47986095,-48.657904,168.34928)"
       id="g22422">
      <path
         class="st0"
         d="m 103.2,235 c 0.3,0 0.5,0 0.7,0 0.2,0 0.5,0 0.7,0.1 0.1,0.1 0.4,0.2 0.8,0.2 0.4,0 0.9,0.1 1.5,0.1 0.6,0.1 1.2,0.2 1.9,0.4 0.7,0.2 1.3,0.6 1.8,1.1 0.5,0.5 1,1.2 1.4,2.1 0.4,0.9 0.5,2 0.5,3.3 0,1.1 -0.2,1.9 -0.5,2.7 -0.4,0.7 -0.9,1.3 -1.5,1.7 -0.6,0.4 -1.3,0.7 -2.2,0.9 -0.9,0.2 -1.7,0.3 -2.7,0.3 0,0.2 0,0.7 0,1.5 0,0.8 0,1.7 0,2.7 0,1 0,2.1 -0.1,3.3 0,1.1 -0.1,2.2 -0.2,3.2 -0.1,1 -0.2,1.8 -0.3,2.5 -0.1,0.7 -0.2,1 -0.4,1.1 -0.1,0 -0.1,0.1 -0.3,0.1 -0.1,0 -0.3,0 -0.4,0.1 -0.1,0 -0.3,0 -0.4,0 -0.1,0 -0.2,0 -0.3,0 0,0 -0.1,0 -0.2,0 -0.1,0 -0.2,0 -0.2,-0.1 -0.2,-0.3 -0.4,-0.8 -0.6,-1.4 -0.2,-0.6 -0.3,-1.4 -0.4,-2.1 -0.1,-0.8 -0.2,-1.6 -0.2,-2.5 -0.1,-0.9 -0.1,-1.7 -0.1,-2.5 0,-0.8 -0.1,-1.6 -0.1,-2.3 0,-0.7 0,-1.2 0,-1.7 0,-2 0.1,-4 0.2,-5.9 0.1,-1.9 0.4,-3.9 0.7,-5.9 l 0.1,-0.4 c 0,0 0,-0.1 0,-0.1 0,0 0,-0.1 0,-0.1 -0.1,0 -0.3,0 -0.4,0.1 -0.1,0 -0.2,0 -0.2,-0.3 0,-0.3 0,-0.7 0.1,-0.9 0.1,-0.3 0.4,-0.4 0.8,-0.4 0,-0.1 0,-0.2 0.1,-0.4 0.2,-0.4 0.3,-0.5 0.4,-0.5 z m 1.9,2 c 0,0.1 0.1,0.3 0.1,0.7 0,0.4 0.1,0.9 0.2,1.6 0.1,0.7 0.1,1.3 0.1,2 0,0.7 0.1,1.4 0.1,2.1 0,0.6 0.1,1.2 0.1,1.7 0,0.5 0,0.8 0,1 0.5,-0.1 1.1,-0.2 1.6,-0.2 0.6,-0.1 1.1,-0.2 1.5,-0.4 0.5,-0.2 0.8,-0.5 1.1,-0.8 0.3,-0.4 0.4,-0.9 0.4,-1.6 0,-1.1 -0.1,-2 -0.2,-2.8 -0.1,-0.7 -0.4,-1.3 -0.8,-1.8 -0.4,-0.5 -0.9,-0.8 -1.6,-1 -0.6,-0.3 -1.5,-0.4 -2.6,-0.5 z"
         id="path22404"
         inkscape:connector-curvature="0"
         style="fill:#702f0b" />
      <path
         class="st0"
         d="m 117.1,262.4 c -0.5,-0.1 -0.9,-0.2 -1.3,-0.5 -0.4,-0.2 -0.8,-0.5 -1.1,-0.8 -0.2,-0.3 -0.4,-0.6 -0.7,-1 -0.3,-0.4 -0.4,-0.8 -0.5,-1.1 -0.1,-0.2 -0.1,-0.4 -0.2,-0.6 -0.1,-0.2 -0.1,-0.4 -0.1,-0.6 0,-0.2 -0.1,-0.5 -0.1,-0.7 0,-0.3 -0.1,-0.6 -0.1,-1 l -0.1,-1.2 0.2,-1.2 c 0.1,-0.4 0.1,-0.8 0.2,-1.1 0.1,-0.3 0.1,-0.6 0.2,-0.8 0.1,-0.2 0.1,-0.5 0.2,-0.7 0.1,-0.2 0.2,-0.5 0.2,-0.7 0.2,-0.7 0.5,-1.4 0.8,-2.2 0.3,-0.8 0.7,-1.5 1.1,-2.2 0.1,-0.2 0.2,-0.4 0.4,-0.6 0.2,-0.2 0.3,-0.5 0.5,-0.7 0.2,-0.2 0.3,-0.5 0.5,-0.7 0.1,-0.2 0.3,-0.4 0.4,-0.5 0.2,-0.2 0.4,-0.5 0.6,-0.7 0.2,-0.3 0.4,-0.5 0.6,-0.7 0.2,-0.2 0.4,-0.5 0.6,-0.7 0.2,-0.2 0.4,-0.4 0.6,-0.5 l 0.2,-0.3 0.1,0.1 c 0.1,0.1 0.2,0.1 0.4,0.2 0.1,0.1 0.2,0.1 0.2,0.2 0,0.1 -0.1,0.5 -0.4,1.3 -0.3,0.8 -0.6,1.8 -1,3 -0.2,0.5 -0.4,1.1 -0.6,1.6 -0.2,0.5 -0.4,1.1 -0.5,1.6 -0.2,0.5 -0.3,0.9 -0.4,1.3 -0.1,0.4 -0.2,0.7 -0.3,0.9 -0.1,0.2 -0.1,0.5 -0.2,0.7 -0.1,0.2 -0.1,0.4 -0.2,0.7 -0.1,0.3 -0.1,0.5 -0.2,0.8 -0.1,0.3 -0.2,0.6 -0.2,1 0,0.3 -0.1,0.6 -0.1,0.7 0,0.2 0,0.3 0,0.5 0,0.2 0,0.3 0,0.5 0,0.2 0,0.5 -0.1,0.8 v 1.9 c 0.1,1.6 0.5,2.6 1.1,2.9 0.1,0.1 0.1,0.1 0.2,0.1 0.1,0 0.1,0 0.2,0 0.1,0 0.2,0 0.3,-0.1 0.1,-0.1 0.1,-0.2 0.2,-0.3 0.1,-0.1 0.2,-0.2 0.3,-0.3 0.1,-0.2 0.3,-0.3 0.5,-0.5 0.2,-0.3 0.3,-0.5 0.4,-0.7 0.1,-0.2 0.2,-0.4 0.4,-0.8 0.3,-0.4 0.5,-0.8 0.7,-1.2 0.2,-0.3 0.4,-0.7 0.5,-1.2 0.2,-0.4 0.4,-1 0.5,-1.6 0.1,-0.6 0.4,-1.4 0.7,-2.3 0.2,-0.6 0.3,-1.1 0.4,-1.6 0.1,-0.4 0.2,-0.9 0.3,-1.2 0.1,-0.4 0.1,-0.7 0.2,-1.1 0,-0.3 0.1,-0.7 0.1,-1 0.1,-0.2 0.1,-0.4 0.1,-0.7 0,-0.3 0,-0.7 0,-1.3 0,-0.3 0,-0.5 0,-0.7 0,-0.2 0,-0.4 0,-0.5 0,-0.2 0,-0.3 0,-0.5 0,-0.1 0,-0.3 -0.1,-0.5 -0.1,-0.7 -0.1,-1.3 -0.2,-1.8 -0.1,-0.4 -0.2,-0.9 -0.4,-1.3 -0.3,-0.8 -0.8,-1.5 -1.4,-2.1 -0.6,-0.6 -1.2,-0.9 -1.9,-1 -0.1,-0.1 -0.2,-0.1 -0.3,-0.1 -0.2,0 -0.3,0 -0.5,0 h -0.6 l -0.5,0.3 c -0.6,0.2 -1.1,0.4 -1.4,0.5 -0.3,0.1 -0.5,0.3 -0.8,0.5 -0.2,0.1 -0.4,0.3 -0.5,0.5 -0.1,0.2 -0.2,0.3 -0.3,0.5 0,0.2 0,0.3 0.1,0.3 h 0.1 c 0,0 0,0.1 -0.1,0.1 -0.1,0.1 -0.1,0.1 -0.2,0.2 -0.1,0.1 -0.2,0.1 -0.2,0.2 -0.1,0.1 -0.1,0.1 -0.1,0.1 -0.1,0 -0.2,0 -0.3,-0.1 -0.1,-0.1 -0.2,-0.2 -0.3,-0.2 -0.1,-0.1 -0.2,-0.3 -0.2,-0.4 0,-0.1 0,-0.2 0,-0.4 0,-0.1 0,-0.3 0,-0.3 0,-0.1 0,-0.1 0.1,-0.2 0.1,-0.2 0.2,-0.4 0.2,-0.5 0,-0.1 0.2,-0.3 0.4,-0.5 0.3,-0.3 0.5,-0.5 0.8,-0.7 0.3,-0.2 0.6,-0.3 1.1,-0.5 0.1,-0.1 0.2,-0.1 0.3,-0.2 0.1,0 0.2,-0.1 0.3,-0.1 0.1,0 0.2,0 0.3,-0.1 0.1,0 0.3,0 0.6,-0.1 0.4,-0.1 0.8,-0.2 1.2,-0.2 0.3,0 0.7,0 1,0 0.3,0 0.6,0.1 0.9,0.2 0.3,0.1 0.6,0.2 1,0.3 1,0.3 1.9,0.9 2.7,1.7 0.8,0.8 1.4,1.8 1.8,2.9 0.1,0.3 0.2,0.5 0.3,0.9 0.1,0.3 0.2,0.8 0.3,1.4 l 0.1,0.9 v 1.7 2.1 c -0.1,0.8 -0.3,1.7 -0.5,2.7 -0.2,0.9 -0.5,1.8 -0.7,2.5 -0.2,0.5 -0.4,1 -0.7,1.5 -0.2,0.5 -0.5,1.1 -0.7,1.6 -0.2,0.5 -0.5,1 -0.8,1.4 -0.3,0.5 -0.5,0.8 -0.8,1.2 -0.1,0.1 -0.2,0.3 -0.4,0.5 -0.2,0.2 -0.3,0.4 -0.5,0.6 -0.2,0.3 -0.4,0.5 -0.5,0.7 -0.2,0.2 -0.4,0.3 -0.6,0.5 -0.1,0.1 -0.3,0.3 -0.4,0.4 -0.2,0.1 -0.3,0.2 -0.3,0.2 -0.3,0.2 -0.6,0.4 -0.9,0.5 -0.3,0.1 -0.7,0.2 -1,0.3 z"
         id="path22406"
         inkscape:connector-curvature="0"
         style="fill:#702f0b" />
      <path
         class="st0"
         d="m 127.7,253 c 0,-1 0.1,-2.1 0.3,-3.3 0.2,-1.2 0.5,-2.5 0.9,-3.7 0.4,-1.3 0.9,-2.5 1.5,-3.8 0.6,-1.3 1.3,-2.3 2.1,-3.3 0.8,-1 1.7,-1.8 2.6,-2.5 1,-0.7 2,-1 3.1,-1.2 0.2,0.1 0.3,0.2 0.5,0.3 0.1,0.2 0.2,0.3 0.2,0.5 -0.8,0.3 -1.5,0.9 -2.1,1.6 -0.6,0.7 -1.2,1.6 -1.8,2.5 -0.5,1 -1,2 -1.4,3.1 -0.4,1.1 -0.8,2.2 -1,3.3 -0.2,1.1 -0.5,2.1 -0.6,3.2 -0.1,1 -0.2,1.9 -0.2,2.7 v 3.4 c 0,0.9 0.1,1.8 0.4,2.6 0.3,0.8 0.7,1.6 1.4,2.2 0.1,0.1 0.2,0.1 0.4,0.1 0.1,0 0.3,0 0.4,0 0.3,-0.2 0.5,-0.4 0.8,-0.8 0.3,-0.4 0.6,-0.7 0.8,-1.1 0.3,-0.4 0.5,-0.8 0.7,-1.2 0.2,-0.4 0.3,-0.8 0.3,-1.1 0,-0.1 -0.1,-0.1 -0.2,0 -0.1,0 -0.2,0.1 -0.2,0.1 0,-0.1 0,-0.2 -0.1,-0.3 -0.1,-0.1 0,-0.2 0,-0.3 0,-0.4 0.2,-0.7 0.5,-0.8 0.3,-0.1 0.6,-0.2 0.9,-0.2 0.2,0 0.3,0.1 0.4,0.2 0.1,0.2 0.2,0.3 0.3,0.5 0.1,0.2 0.1,0.4 0.1,0.6 0,0.2 0,0.4 0,0.5 0,0.6 -0.1,1.3 -0.4,1.9 -0.3,0.6 -0.7,1.2 -1.1,1.7 -0.5,0.5 -1,0.9 -1.7,1.2 -0.6,0.3 -1.3,0.5 -1.9,0.5 -0.8,0 -1.4,-0.2 -2,-0.5 -0.6,-0.3 -1.1,-0.7 -1.5,-1.2 -0.4,-0.5 -0.8,-1.1 -1.1,-1.7 -0.3,-0.6 -0.5,-1.3 -0.7,-2 -0.2,-0.7 -0.3,-1.4 -0.4,-2.1 -0.2,-0.4 -0.2,-1 -0.2,-1.6 z"
         id="path22408"
         inkscape:connector-curvature="0"
         style="fill:#702f0b" />
      <path
         class="st0"
         d="m 151.5,265.7 0.3,0.7 0.1,0.1 c 0.1,0 0.3,-0.1 0.4,-0.1 0.1,0 0.2,-0.1 0.4,-0.1 l 0.2,0.5 -0.2,0.8 c -0.3,0.1 -0.5,0.2 -0.7,0.3 -0.2,0.1 -0.5,0.2 -0.8,0.2 -0.1,0 -0.3,0 -0.5,-0.2 -0.2,-0.1 -0.4,-0.2 -0.6,-0.4 -0.2,-0.1 -0.4,-0.3 -0.6,-0.4 -0.2,-0.1 -0.3,-0.3 -0.4,-0.3 l 0.3,-0.1 -0.2,-0.1 c -0.7,-1 -1.3,-2 -1.8,-3 -0.5,-1 -0.9,-2.1 -1.4,-3.1 -0.4,-1 -0.8,-2.1 -1.2,-3.2 -0.4,-1.1 -0.9,-2.1 -1.4,-3.2 0,0.2 0,0.6 -0.1,1 0,0.5 0,1 -0.1,1.6 -0.1,0.6 -0.1,1.2 -0.1,1.8 0,0.6 -0.1,1.2 -0.2,1.7 -0.1,0.5 -0.2,0.9 -0.3,1.2 -0.1,0.3 -0.3,0.5 -0.5,0.5 -0.1,0 -0.2,0 -0.3,0.1 -0.1,0.1 -0.2,0.1 -0.3,0.2 -0.1,0.1 -0.2,0.2 -0.3,0.3 -0.1,0.1 -0.2,0.2 -0.2,0.2 -0.3,-0.2 -0.6,-0.5 -0.8,-1 -0.2,-0.5 -0.4,-1 -0.5,-1.6 -0.1,-0.6 -0.2,-1.2 -0.3,-1.9 -0.1,-0.7 -0.1,-1.3 -0.2,-2 0,-0.6 0,-1.2 0,-1.8 0,-0.6 0,-1 0,-1.4 0,-0.3 0,-0.8 0.1,-1.5 0,-0.7 0.1,-1.4 0.2,-2.3 0.1,-0.9 0.1,-1.8 0.2,-2.8 0.1,-1 0.2,-2 0.3,-3 0.1,-1 0.2,-2 0.4,-3 0.1,-1 0.3,-1.8 0.4,-2.6 0.2,-0.8 0.3,-1.5 0.5,-2 0.2,-0.5 0.3,-0.9 0.5,-1.1 l 1.5,0.2 c 0.3,1.6 0.4,3.3 0.3,5.1 -0.1,1.7 -0.1,3.4 -0.2,5.1 0.1,0 0.2,-0.2 0.5,-0.6 0.3,-0.4 0.6,-0.9 1,-1.4 0.4,-0.6 0.8,-1.2 1.3,-1.8 0.5,-0.6 0.9,-1.2 1.3,-1.8 0.4,-0.6 0.8,-1 1.1,-1.4 0.3,-0.4 0.6,-0.5 0.7,-0.5 0,0 0.1,0 0.2,0.1 0.1,0.1 0.2,0.1 0.4,0.2 0.1,0.1 0.3,0.2 0.5,0.3 0,0.2 -0.1,0.3 -0.2,0.4 -0.1,0.1 -0.2,0.3 -0.3,0.4 -0.3,0.4 -0.5,0.8 -0.8,1.3 -0.3,0.4 -0.6,0.8 -0.8,1.3 -0.1,0.1 -0.2,0.4 -0.5,0.7 -0.2,0.4 -0.5,0.8 -0.8,1.3 -0.3,0.5 -0.6,1 -1,1.5 -0.3,0.5 -0.7,1 -1,1.4 -0.3,0.4 -0.5,0.8 -0.7,1.1 -0.2,0.3 -0.3,0.4 -0.3,0.5 0.7,1.4 1.5,2.8 2.2,4.3 0.7,1.4 1.4,2.9 2.1,4.3 0.7,1.5 1.3,2.9 1.9,4.4 0.3,1.5 0.8,3 1.3,4.6 z"
         id="path22410"
         inkscape:connector-curvature="0"
         style="fill:#702f0b" />
      <path
         class="st0"
         d="m 151.8,262.5 c -0.3,-0.1 -0.5,-0.4 -0.7,-0.9 -0.2,-0.5 -0.3,-1 -0.4,-1.6 -0.1,-0.6 -0.1,-1.1 -0.2,-1.7 0,-0.5 0,-1 0,-1.2 0,-0.9 0,-1.8 0,-2.7 0,-0.9 0,-1.9 0.1,-2.9 0,-1 0.1,-2.3 0.2,-3.8 0.1,-1.5 0.2,-3.3 0.4,-5.4 0.4,-4.1 0.7,-6.1 1,-6 0.3,0.1 1,0.1 1.9,-0.1 0.9,-0.2 1.7,-0.3 2.4,-0.3 0.7,-0.1 1.4,-0.1 2,-0.2 0.6,-0.1 1.1,0 1.4,0 h 0.6 c 0,0.1 0,0.2 0,0.3 0,0.1 -0.1,0.3 -0.1,0.4 0,0.2 -0.1,0.3 -0.2,0.4 -0.1,0.1 -0.1,0.2 -0.2,0.2 -0.7,0.1 -1.4,0.2 -2.1,0.3 -0.7,0.1 -1.4,0 -2.1,0 0,1.8 -0.1,3.6 -0.3,5.3 -0.2,1.7 -0.4,3.5 -0.6,5.3 0.3,-0.1 0.6,-0.1 0.9,-0.1 0.3,0 0.6,0 0.9,0 h 1.8 v 0.4 c 0,0.1 -0.1,0.2 -0.2,0.4 -0.1,0.2 -0.3,0.3 -0.3,0.4 -1,0.2 -2,0.3 -3,0.2 l -0.2,0.2 c -0.1,1.8 -0.2,3.6 -0.4,5.4 -0.2,1.8 -0.3,3.6 -0.3,5.4 0,0.1 0,0.2 0,0.3 0,0.1 0,0.2 0.1,0.3 0.9,-0.1 1.7,-0.3 2.6,-0.4 0.8,-0.1 1.7,-0.2 2.6,-0.2 0.3,0 0.5,0 0.5,0 0,0 0.1,0 0.1,0.1 l -0.5,1.2 c -0.1,0.1 -0.3,0.1 -0.6,0.2 -0.3,0 -0.7,0.1 -1.1,0.1 -0.4,0 -0.9,0.1 -1.3,0.1 -0.5,0 -0.9,0.1 -1.3,0.1 -0.4,0 -0.8,0.1 -1.1,0.1 -0.3,0 -0.5,0.1 -0.5,0.2 h -1.8 z"
         id="path22412"
         inkscape:connector-curvature="0"
         style="fill:#702f0b" />
      <path
         class="st0"
         d="m 165,250.4 c 0,-2.1 0,-4.2 0.1,-6.3 0,-2.1 0.2,-4.2 0.6,-6.3 -0.8,0 -1.6,-0.1 -2.4,-0.1 -0.8,-0.1 -1.6,-0.2 -2.3,-0.3 0,-0.2 0,-0.4 0.1,-0.7 0.1,-0.3 0.2,-0.4 0.2,-0.6 0.2,-0.1 0.5,-0.2 0.9,-0.3 0.4,-0.1 0.9,-0.1 1.4,-0.2 0.5,0 1.1,-0.1 1.6,-0.1 0.5,0 1.1,0 1.7,-0.1 0.5,0 1,0 1.4,0 0.4,0 0.8,0 1.1,0 0.3,0 0.7,0 1.1,0 0.5,0 1,0 1.5,0 0.5,0 1,0.1 1.4,0.1 0.5,0 0.8,0.1 1.1,0.2 0.1,0 0.1,0.1 0.2,0.1 0,0 0,0.1 0,0.2 l -0.4,1.4 c -1.1,0.2 -2.3,0.4 -3.4,0.4 -1.1,0 -2.2,0.1 -3.4,0.1 0.3,1.4 0.6,2.9 0.8,4.5 0.2,1.6 0.3,3.1 0.3,4.6 v 8.5 c 0,0.3 0,0.7 0,1.1 0,0.5 0,0.9 0,1.4 0,0.5 -0.1,1 -0.2,1.5 -0.1,0.5 -0.2,1 -0.4,1.4 -0.2,0.4 -0.4,0.7 -0.6,1 -0.3,0.3 -0.6,0.4 -1,0.4 -0.3,0 -0.4,-0.1 -0.5,-0.4 -0.1,-0.3 -0.2,-0.5 -0.2,-0.7 -0.4,-1.8 -0.6,-3.6 -0.7,-5.4 0.1,-1.8 0,-3.6 0,-5.4 z"
         id="path22414"
         inkscape:connector-curvature="0"
         style="fill:#702f0b" />
      <path
         class="st0"
         d="m 182.5,267.9 c -0.4,0 -0.7,-0.2 -0.9,-0.5 -0.2,-0.4 -0.4,-0.8 -0.5,-1.3 -0.1,-0.5 -0.2,-1 -0.2,-1.5 0,-0.5 0,-0.9 0,-1.1 0,-0.3 0,-0.7 0.1,-1.3 0.1,-0.5 0.2,-1 0.3,-1.6 0.1,-0.5 0.3,-1.1 0.4,-1.6 0.1,-0.5 0.3,-0.9 0.4,-1.2 -0.3,0.6 -0.6,1.2 -0.9,1.7 -0.3,0.5 -0.7,1 -1.1,1.5 -0.4,0.4 -0.9,0.8 -1.4,1 -0.5,0.3 -1.2,0.4 -2,0.4 -1.1,0 -1.9,-0.3 -2.6,-1 -0.7,-0.6 -1.2,-1.4 -1.5,-2.4 -0.3,-1 -0.6,-1.9 -0.7,-2.9 -0.1,-1 -0.2,-1.9 -0.2,-2.7 0,-0.8 0.1,-1.9 0.3,-3.1 0.2,-1.2 0.5,-2.5 0.8,-3.9 0.4,-1.4 0.8,-2.7 1.4,-4.1 0.6,-1.4 1.2,-2.6 1.9,-3.6 0.7,-1.1 1.5,-1.9 2.5,-2.6 0.9,-0.7 1.9,-1 3,-1 0.2,0 0.5,0 0.8,0.1 0.3,0.1 0.5,0.2 0.7,0.4 v 0.2 c -0.5,0.1 -1,0.2 -1.4,0.3 -0.6,0.6 -1.2,1.5 -1.7,2.5 -0.5,1 -0.9,2.2 -1.3,3.4 -0.4,1.2 -0.7,2.5 -1,3.9 -0.3,1.4 -0.5,2.7 -0.7,4 -0.2,1.3 -0.3,2.6 -0.4,3.8 -0.1,1.2 -0.1,2.2 -0.1,3.1 0,0.2 0,0.5 0,1 0,0.4 0,0.9 0.1,1.3 0.1,0.4 0.2,0.8 0.3,1.2 0.2,0.3 0.4,0.5 0.7,0.5 0.2,-0.1 0.5,-0.3 0.7,-0.7 0.3,-0.4 0.5,-0.9 0.8,-1.4 0.3,-0.6 0.5,-1.2 0.8,-1.9 0.2,-0.7 0.5,-1.3 0.7,-1.9 0.2,-0.6 0.4,-1.2 0.5,-1.7 0.1,-0.5 0.3,-0.8 0.3,-1.1 l 0.1,-0.1 c -0.3,-0.1 -0.6,-0.1 -1,-0.1 -0.4,0 -0.7,0 -1,0 l -0.2,-0.4 0.3,-0.8 c 0.3,-0.1 0.7,-0.2 1.2,-0.2 0.4,0 0.9,-0.1 1.3,-0.1 0.4,0 0.9,0 1.3,0 0.4,0 0.8,0 1.2,0 0.5,0 0.9,0.1 1.1,0.4 0.2,0.2 0.3,0.6 0.3,1.1 0,1.2 -0.1,2.4 -0.3,3.6 -0.2,1.2 -0.4,2.4 -0.7,3.7 -0.3,1.3 -0.6,2.5 -0.8,3.7 -0.3,1.2 -0.5,2.4 -0.7,3.6 l 0.5,0.1 -0.3,0.7 c -0.1,0.1 -0.3,0.2 -0.5,0.3 -0.3,0.2 -0.5,0.3 -0.7,0.3 z"
         id="path22416"
         inkscape:connector-curvature="0"
         style="fill:#702f0b" />
      <path
         class="st0"
         d="m 191.2,262.7 c -0.8,0 -1.5,-0.2 -2.1,-0.6 -0.6,-0.4 -1.1,-0.9 -1.4,-1.6 -0.4,-0.6 -0.7,-1.4 -0.9,-2.2 -0.2,-0.8 -0.4,-1.6 -0.5,-2.5 -0.1,-0.8 -0.1,-1.6 -0.2,-2.4 0,-0.8 0,-1.4 0,-2 0,-1.2 0,-2.5 0.1,-3.9 0.1,-1.4 0.2,-2.9 0.4,-4.3 0.2,-1.4 0.4,-2.8 0.7,-4.2 0.3,-1.4 0.7,-2.6 1.1,-3.8 l 2.4,-0.1 0.3,0.1 v 1.7 c 0,1.7 -0.1,3.4 -0.2,5.1 -0.1,1.7 -0.3,3.4 -0.4,5.1 -0.1,1.7 -0.3,3.4 -0.4,5.1 -0.1,1.7 -0.2,3.4 -0.2,5.1 0,0.2 0,0.5 0,0.9 0,0.4 0.1,0.8 0.1,1.2 0,0.4 0.2,0.7 0.4,1 0.2,0.3 0.5,0.4 0.8,0.4 1.1,0 2.1,-0.3 2.9,-1 0.8,-0.6 1.4,-1.5 1.8,-2.4 0.4,-1 0.8,-2 0.9,-3.1 0.2,-1.1 0.3,-2.1 0.3,-3 0,-0.8 0,-1.6 -0.1,-2.4 -0.1,-0.8 -0.1,-1.6 -0.2,-2.4 -0.1,-0.8 -0.1,-1.6 -0.2,-2.3 -0.1,-0.8 -0.1,-1.5 -0.1,-2.3 l 0.1,-0.1 c 0.2,-0.1 0.4,-0.2 0.7,-0.2 0.2,-0.1 0.5,-0.1 0.7,-0.1 l 0.3,1 c 0.3,1.1 0.5,2.2 0.6,3.4 0.1,1.2 0.1,2.3 0.1,3.4 0,0.8 0,1.8 -0.1,2.7 -0.1,0.9 -0.2,2 -0.4,3 -0.2,1 -0.5,1.9 -0.9,2.9 -0.4,0.9 -0.8,1.7 -1.4,2.4 -0.6,0.7 -1.3,1.3 -2.1,1.7 -0.8,0.5 -1.8,0.7 -2.9,0.7 z"
         id="path22418"
         inkscape:connector-curvature="0"
         style="fill:#702f0b" />
      <path
         class="st0"
         d="m 201.3,262.1 c -0.3,0 -0.5,0 -0.8,-0.1 -0.3,0 -0.5,-0.1 -0.8,-0.1 -0.1,-0.1 -0.1,-0.3 -0.1,-0.5 0,-0.2 0,-0.3 0,-0.5 0,-0.7 0.1,-1.6 0.3,-2.5 0.2,-0.9 0.5,-1.9 0.8,-3 0.3,-1 0.7,-2 1,-3 0.4,-1 0.7,-1.9 1,-2.7 0.3,-0.8 0.6,-1.5 0.8,-2 0.2,-0.5 0.3,-0.9 0.3,-1 0,-0.1 -0.1,-0.4 -0.3,-0.9 -0.2,-0.5 -0.4,-1.1 -0.6,-1.7 -0.3,-0.7 -0.5,-1.4 -0.8,-2.2 -0.3,-0.8 -0.6,-1.6 -0.9,-2.3 -0.3,-0.7 -0.5,-1.4 -0.7,-2 -0.2,-0.6 -0.3,-1 -0.4,-1.3 0.1,0 0.2,-0.1 0.3,-0.1 0.1,-0.1 0.2,-0.1 0.3,-0.2 0.1,-0.1 0.2,-0.1 0.3,-0.2 0.1,-0.1 0.2,-0.1 0.2,-0.1 0.2,0 0.4,0.2 0.7,0.5 0.3,0.3 0.5,0.8 0.8,1.3 0.3,0.5 0.6,1.1 0.9,1.8 0.3,0.6 0.6,1.2 0.8,1.8 0.2,0.6 0.4,1.1 0.6,1.6 0.2,0.5 0.3,0.8 0.3,1 l 0.1,-0.1 c 0.2,-0.4 0.4,-1 0.7,-1.7 0.3,-0.8 0.7,-1.8 1.2,-3 0.9,-2.3 1.5,-3.8 1.9,-4.4 0.3,-0.6 1,-0.7 1.8,-0.5 0.9,0.2 0.9,1.7 0,4.4 l -2,6.2 c -0.5,1.7 -1.1,3.5 -1.8,5.3 -0.6,1.8 -1.3,3.5 -1.9,5.1 -0.7,1.6 -1.3,3 -1.9,4.2 -0.6,1.2 -1.2,2.1 -1.7,2.7 h -0.4 z"
         id="path22420"
         inkscape:connector-curvature="0"
         style="fill:#702f0b" />
    </g>
  </g>
</svg>
